# xmcd CD database file
#
# Track frame offsets:
#	150
#	2866
#	14164
#	27891
#	43893
#	57531
#	75919
#	90397
#	101384
#	118171
#	133216
#	140803
#	155830
#	166300
#
# Disc length: 2393 seconds
#
# Revision: 0
# Processed by: cddbd v1.5.2PL0 Copyright (c) Steve Scherf et al.
# Submitted via: CDex 1.70beta2
#
DISCID=bf09570e
DTITLE=Riverthieves - Cdn. - OVM - Almonte, ON - Riverthieves
DYEAR=2002
DGENRE=Country
TTITLE0=The Haunting
TTITLE1=Dublin Bay
TTITLE2=Fish of the Sea
TTITLE3=Straw Man
TTITLE4=Angel from Montgomery
TTITLE5=Black Fly
TTITLE6=Nancy Whiskey
TTITLE7=Distant Hills
TTITLE8=Follow Me Up to Carlow
TTITLE9=Fields of Rock and Snow
TTITLE10=Sakkijarven Polka
TTITLE11=Old Dun Cow
TTITLE12=St - Anne's Reel
TTITLE13=All Along the Watchtower
EXTD=YEAR: 2002
EXTT0=
EXTT1=
EXTT2=
EXTT3=
EXTT4=
EXTT5=
EXTT6=
EXTT7=
EXTT8=
EXTT9=
EXTT10=
EXTT11=
EXTT12=
EXTT13=
PLAYORDER=
